<?xml version="1.0" encoding="utf-8"?><svg viewBox="0 0 27 25" xmlns="http://www.w3.org/2000/svg" xmlns:xlink="http://www.w3.org/1999/xlink"><style>:root>svg{display:none}:root>svg:target{display:block}</style><svg fill="none" viewBox="0 0 22 18" id="email-icon" xmlns="http://www.w3.org/2000/svg"><path d="M3 1h16c1.1 0 2 .9 2 2v12c0 1.1-.9 2-2 2H3c-1.1 0-2-.9-2-2V3c0-1.1.9-2 2-2z" stroke="#fff" stroke-linecap="round" stroke-linejoin="round"/><path d="M21 3l-10 7L1 3" stroke="#fff" stroke-linecap="round" stroke-linejoin="round"/></svg><svg fill="none" viewBox="0 0 24 24" id="help-icon" xmlns="http://www.w3.org/2000/svg"><path d="M12 22c5.523 0 10-4.477 10-10S17.523 2 12 2 2 6.477 2 12s4.477 10 10 10z" stroke="#75ADEF" stroke-width="2" stroke-linecap="round" stroke-linejoin="round"/><path d="M9.09 9a3 3 0 015.83 1c0 2-3 3-3 3m.08 4h.01" stroke="#75ADEF" stroke-width="2" stroke-linecap="round" stroke-linejoin="round"/></svg><svg fill="none" viewBox="0 0 27 25" id="map-icon" xmlns="http://www.w3.org/2000/svg"><path d="M26.25 7.5c-.094 0-.188.047-.281.094L18 10.5l-.516-.14C18.61 8.718 19.5 7.03 19.5 5.765 19.5 2.578 16.781 0 13.5 0c-3.328 0-6 2.625-6 5.766 0 .562.188 1.218.469 1.921L.937 10.126A1.535 1.535 0 000 11.531V23.25c0 .469.328.75.75.75.094 0 .188 0 .281-.047L9 21l8.063 2.86c.609.187 1.265.234 1.875 0l7.078-2.485c.609-.188.984-.75.984-1.36V8.25c0-.422-.375-.75-.75-.75zm-18 12.188l-6.797 2.484-.047-10.594 6.844-2.39v10.5zM13.5 1.5c2.438 0 4.5 1.922 4.5 4.266 0 1.265-1.828 4.171-4.5 7.359C10.781 9.937 9 7.031 9 5.765 9 3.423 11.016 1.5 13.5 1.5zm3.75 20.86l-7.5-2.672v-8.954c1.125 1.688 2.438 3.188 3.14 4.032.141.187.376.234.61.234.188 0 .422-.047.563-.234.609-.704 1.593-1.829 2.53-3.141l.657.234v10.5zm1.5 0v-10.5l6.75-2.532.047 10.64-6.797 2.391zM14.625 6A1.14 1.14 0 0013.5 4.875 1.11 1.11 0 0012.375 6c0 .656.469 1.125 1.125 1.125A1.11 1.11 0 0014.625 6z" fill="#fff"/></svg><svg fill="none" viewBox="0 0 23 23" id="phone-icon" xmlns="http://www.w3.org/2000/svg"><path d="M14.05 5A5 5 0 0118 8.95L14.05 5zm0-4A9 9 0 0122 8.94L14.05 1zM21 16.92v3a2 2 0 01-2.18 2 19.79 19.79 0 01-8.63-3.07 19.5 19.5 0 01-6-6 19.79 19.79 0 01-3.07-8.67A2 2 0 013.11 2h3a2 2 0 012 1.72c.127.96.361 1.903.7 2.81a2 2 0 01-.45 2.11L7.09 9.91a16 16 0 006 6l1.27-1.27a2 2 0 012.11-.45c.907.339 1.85.573 2.81.7A2 2 0 0121 16.92z" stroke="#fff" stroke-linecap="round" stroke-linejoin="round"/></svg></svg>