<svg width="27" height="25" viewBox="0 0 27 25" fill="none" xmlns="http://www.w3.org/2000/svg">
<path d="M26.25 7.5C26.1562 7.5 26.0625 7.54688 25.9688 7.59375L18 10.5L17.4844 10.3594C18.6094 8.71875 19.5 7.03125 19.5 5.76562C19.5 2.57812 16.7812 0 13.5 0C10.1719 0 7.5 2.625 7.5 5.76562C7.5 6.32812 7.6875 6.98438 7.96875 7.6875L0.9375 10.125C0.375 10.3594 0 10.9219 0 11.5312V23.25C0 23.7188 0.328125 24 0.75 24C0.84375 24 0.9375 24 1.03125 23.9531L9 21L17.0625 23.8594C17.6719 24.0469 18.3281 24.0938 18.9375 23.8594L26.0156 21.375C26.625 21.1875 27 20.625 27 20.0156V8.25C27 7.82812 26.625 7.5 26.25 7.5ZM8.25 19.6875L1.45312 22.1719L1.40625 11.5781L8.25 9.1875V19.6875ZM13.5 1.5C15.9375 1.5 18 3.42188 18 5.76562C18 7.03125 16.1719 9.9375 13.5 13.125C10.7812 9.9375 9 7.03125 9 5.76562C9 3.42188 11.0156 1.5 13.5 1.5ZM17.25 22.3594L9.75 19.6875V10.7344C10.875 12.4219 12.1875 13.9219 12.8906 14.7656C13.0312 14.9531 13.2656 15 13.5 15C13.6875 15 13.9219 14.9531 14.0625 14.7656C14.6719 14.0625 15.6562 12.9375 16.5938 11.625L17.25 11.8594V22.3594ZM18.75 22.3594V11.8594L25.5 9.32812L25.5469 19.9688L18.75 22.3594ZM14.625 6C14.625 5.39062 14.1094 4.875 13.5 4.875C12.8438 4.875 12.375 5.39062 12.375 6C12.375 6.65625 12.8438 7.125 13.5 7.125C14.1094 7.125 14.625 6.65625 14.625 6Z" fill="white"/>
</svg>
